<?xml version="1.0" standalone="no"?>
<!DOCTYPE svg PUBLIC "-//W3C//DTD SVG 20010904//EN"
 "http://www.w3.org/TR/2001/REC-SVG-20010904/DTD/svg10.dtd">
<svg version="1.0" xmlns="http://www.w3.org/2000/svg"
 width="1024.000000pt" height="1024.000000pt" viewBox="0 0 1024.000000 1024.000000"
 preserveAspectRatio="xMidYMid meet">

<g transform="translate(0.000000,1024.000000) scale(0.100000,-0.100000)"
fill="#000000" stroke="none">
<path d="M7428 9274 c-15 -8 -35 -28 -43 -44 -8 -16 -23 -31 -32 -34 -19 -6
-548 -129 -833 -195 -291 -67 -556 -128 -740 -171 -96 -23 -321 -75 -500 -116
-179 -41 -401 -92 -495 -114 -377 -88 -1119 -257 -1305 -296 -41 -9 -153 -36
-249 -60 l-174 -44 -833 0 -833 0 -77 -67 c-43 -38 -105 -93 -139 -123 -33
-30 -97 -86 -143 -125 -81 -69 -92 -87 -76 -129 6 -14 121 -16 1203 -16 l1196
0 13 -30 c9 -20 24 -33 45 -38 l32 -8 3 -297 c1 -163 -2 -297 -6 -297 -15 0
-32 -49 -32 -93 0 -53 31 -105 72 -121 l30 -11 -5 -83 c-5 -79 -6 -84 -41
-118 -20 -19 -36 -40 -36 -47 0 -8 -29 -13 -94 -14 -107 -2 -155 -20 -201 -75
-58 -68 -55 -15 -55 -1089 0 -724 3 -1002 12 -1030 15 -53 68 -112 123 -138
45 -21 50 -21 880 -21 l835 0 -2 238 -3 237 -703 3 -702 2 0 694 0 693 68 6
c37 4 354 5 705 4 l637 -2 0 238 0 237 -624 0 -625 0 -13 28 c-7 15 -23 31
-36 37 -21 9 -22 16 -22 105 l0 95 30 17 c57 33 80 140 40 191 -19 24 -20 38
-18 319 l3 293 25 3 c55 6 70 14 85 42 l16 30 1644 0 1645 0 -10 -26 c-11 -28
-13 -307 -4 -367 5 -28 23 -56 70 -106 l64 -69 0 -1471 0 -1471 235 0 235 0 1
58 c1 31 3 192 4 357 l3 300 829 5 829 5 41 27 c52 34 88 81 102 133 17 64 15
1286 -2 1328 -20 47 -64 95 -108 117 -37 19 -64 20 -816 20 -428 0 -787 3
-798 6 -19 5 -20 13 -18 282 1 152 2 411 3 575 l0 297 440 0 440 0 0 -200 0
-200 398 2 397 3 3 168 2 167 58 1 c31 1 60 1 65 0 4 0 7 35 7 79 l0 80 -30 0
-29 0 -3 78 -3 77 -192 3 -193 2 -277 217 c-153 119 -330 258 -393 308 -63 50
-178 140 -255 200 -392 305 -575 457 -575 477 0 11 -15 35 -34 54 -27 27 -42
34 -72 34 -22 -1 -51 -7 -66 -16z m-53 -158 c19 -14 19 -17 2 -162 -10 -82
-29 -246 -42 -364 -43 -387 -77 -675 -81 -697 -4 -21 -10 -23 -64 -23 l-59 0
-128 103 c-71 56 -165 130 -210 165 l-82 62 -1682 0 c-925 0 -1680 2 -1678 5
3 2 153 38 334 79 182 41 490 111 685 156 195 45 510 117 700 160 190 44 424
98 520 120 224 53 776 182 945 220 72 16 283 65 470 109 187 44 343 80 346 80
3 1 14 -5 24 -13z m434 -183 c108 -87 266 -212 350 -278 84 -66 197 -154 250
-196 53 -41 202 -158 331 -258 129 -101 236 -186 238 -191 6 -15 -143 -18
-594 -13 l-462 5 -75 -71 c-72 -69 -103 -85 -112 -58 -3 6 -23 167 -45 357
-63 552 -70 611 -80 680 -19 141 -22 180 -10 180 6 0 100 -71 209 -157z m-299
95 c0 -2 7 -41 15 -88 8 -47 15 -97 15 -112 0 -27 -2 -28 -50 -28 -58 0 -57
-3 -39 113 14 89 24 117 44 117 8 0 15 -1 15 -2z m45 -330 c3 -24 8 -55 11
-70 3 -16 2 -28 -2 -28 -14 0 -124 113 -124 127 0 9 17 13 54 13 l54 0 7 -42z
m-52 -123 c55 -61 66 -78 58 -92 -5 -10 -49 -56 -96 -103 -79 -77 -86 -82 -81
-55 3 17 10 77 16 135 15 152 20 190 28 190 4 0 38 -34 75 -75z m94 -227 c5
-40 7 -79 5 -85 -4 -14 -172 -19 -172 -6 0 8 142 160 152 162 3 0 10 -32 15
-71z m16 -180 c3 -13 9 -57 13 -98 7 -72 6 -74 -12 -60 -32 26 -174 168 -174
174 0 3 38 6 84 6 79 0 84 -1 89 -22z m17 -280 c0 -16 -14 -18 -151 -18 l-151
0 6 38 c3 20 10 80 16 132 6 52 14 103 17 113 4 14 33 -11 134 -115 70 -73
129 -141 129 -150z m-5734 240 c8 -9 -145 -242 -154 -234 -4 4 -58 57 -120
119 l-112 112 47 6 c59 8 330 5 339 -3z m640 -1 c4 -3 -151 -226 -170 -245
-12 -12 -31 1 -134 96 -66 61 -133 119 -148 129 l-28 18 54 7 c50 6 420 2 426
-5z m510 8 l63 -7 -51 -77 c-28 -42 -67 -98 -86 -124 l-35 -49 -123 123 c-68
67 -121 125 -119 129 6 9 276 13 351 5z m621 -5 l24 0 -24 -32 c-14 -18 -50
-75 -82 -126 l-57 -93 -130 123 -131 123 129 6 c71 3 156 4 188 3 32 -2 70 -4
83 -4z m539 -2 c4 -4 -26 -60 -67 -124 l-73 -117 -115 119 c-100 103 -113 120
-96 126 26 8 342 5 351 -4z m476 4 l67 -7 -63 -104 c-35 -56 -69 -108 -75
-114 -8 -8 -42 19 -126 103 l-116 115 33 6 c50 8 205 9 280 1z m595 2 l32 -5
-65 -107 c-37 -59 -72 -114 -80 -122 -12 -13 -30 1 -134 105 l-121 120 48 5
c69 7 282 10 320 4z m520 -2 l53 -7 -31 -45 c-16 -25 -48 -75 -70 -112 -22
-38 -43 -68 -47 -68 -9 0 -222 213 -222 222 0 3 10 9 23 11 35 7 236 6 294 -1z
m545 0 l37 -7 -57 -90 c-31 -50 -65 -101 -75 -115 l-17 -25 -106 105 c-58 58
-109 112 -114 120 -7 13 12 15 143 17 84 2 169 -1 189 -5z m403 -29 l45 -37 0
-95 0 -96 -125 125 c-69 69 -125 128 -125 131 0 4 36 7 80 8 79 2 81 1 125
-36z m-5356 -133 l2 -140 -163 0 c-102 0 -158 4 -152 9 36 37 300 270 306 270
3 1 7 -62 7 -139z m187 10 c71 -72 131 -135 132 -140 2 -6 -49 -10 -132 -10
l-136 0 0 140 c0 77 1 140 3 140 2 0 62 -59 133 -130z m1772 -3 c73 -73 130
-136 126 -140 -4 -4 -67 -7 -141 -7 l-133 0 0 140 c0 77 3 140 8 140 4 0 67
-60 140 -133z m3325 -62 l78 -85 -140 0 -141 0 0 141 0 140 63 -55 c34 -30 97
-94 140 -141z m-4536 74 c65 -58 132 -118 148 -132 l30 -26 -157 -1 -158 0 0
136 c0 78 4 134 9 132 5 -1 63 -51 128 -109z m761 -150 c2 -5 -57 -9 -132 -9
l-136 0 0 136 0 136 133 -127 c72 -70 134 -132 135 -136z m1550 137 c67 -68
122 -129 122 -135 0 -7 -43 -11 -130 -11 l-130 0 0 135 c0 74 4 135 8 135 5 0
63 -56 130 -124z m527 12 c61 -62 119 -123 129 -135 l19 -23 -136 0 -137 0 0
135 c0 74 3 135 8 135 4 0 57 -51 117 -112z m580 -23 l127 -135 -136 0 -136 0
0 135 c0 74 4 135 9 135 5 0 66 -61 136 -135z m506 27 c57 -59 115 -120 128
-135 l24 -27 -136 0 -137 0 0 135 c0 74 4 135 8 135 5 0 55 -49 113 -108z
m-2147 -24 c64 -67 116 -126 116 -130 0 -4 -56 -8 -125 -8 l-125 0 0 130 c0
72 4 130 9 130 5 0 61 -55 125 -122z m886 -8 l0 -130 -80 0 c-47 0 -80 4 -80
10 0 17 146 250 156 250 2 0 4 -58 4 -130z m-2850 -5 l0 -125 -86 0 c-47 0
-83 3 -81 8 57 98 151 242 158 242 5 0 9 -56 9 -125z m1200 0 l0 -125 -85 0
c-47 0 -85 2 -85 5 0 15 156 245 167 245 1 0 3 -56 3 -125z m570 0 l0 -125
-75 0 c-41 0 -75 4 -75 9 0 6 25 52 56 103 77 128 84 138 89 138 3 0 5 -56 5
-125z m540 -12 l0 -113 -80 0 c-44 0 -80 2 -80 4 0 3 32 59 72 126 48 80 74
116 80 108 4 -7 8 -64 8 -125z m1090 12 l0 -125 -75 0 c-49 0 -75 4 -75 11 0
18 135 239 146 239 2 0 4 -56 4 -125z m-2770 -5 l0 -120 -90 0 c-72 0 -89 3
-83 13 40 66 157 227 164 227 5 0 9 -54 9 -120z m3308 0 l1 -120 -75 0 c-41 0
-74 4 -74 10 0 5 11 29 25 52 14 24 42 73 63 110 20 37 42 68 48 68 7 0 11
-41 12 -120z m526 31 c-2 -31 -3 -77 -4 -103 l0 -48 -76 0 c-42 0 -74 3 -72 8
2 4 34 59 72 122 76 124 85 126 80 21z m554 -52 c61 -50 112 -95 112 -99 0 -4
-10 -6 -22 -5 -13 1 -67 3 -120 4 l-98 1 0 95 c0 52 3 95 8 95 4 0 58 -41 120
-91z m1170 -46 l3 -43 -90 0 -91 0 0 45 0 46 88 -3 87 -3 3 -42z m770 0 l3
-43 -230 0 -231 0 0 46 0 45 228 -3 227 -3 3 -42z m270 0 l3 -43 -100 0 -101
0 0 39 c0 46 8 49 125 47 l70 -1 3 -42z m247 2 l0 -40 -90 0 -90 0 -3 28 c-6
55 0 58 95 55 l88 -3 0 -40z m-1512 -19 c8 -20 -1 -26 -37 -26 l-31 0 25 20
c30 23 36 24 43 6z m-608 -346 l0 -155 -87 -3 -88 -3 0 161 0 161 88 -3 87 -3
0 -155z m218 88 c-1 -40 -2 -112 -2 -160 l-1 -88 -74 0 -73 0 -6 68 c-3 37 -6
109 -7 160 l-1 92 83 0 83 0 -2 -72z m-3918 -233 l0 -290 -47 -3 -48 -3 0 289
c0 159 3 292 7 296 4 4 25 6 48 4 l40 -3 0 -290z m3933 -292 l-67 -66 -45 37
c-25 20 -55 50 -66 66 l-21 30 133 0 133 0 -67 -67z m-182 -38 l66 -65 -29
-33 c-15 -17 -47 -49 -70 -71 l-43 -39 0 137 c0 75 3 136 6 136 3 0 34 -29 70
-65z m294 -72 l0 -126 -22 19 c-13 10 -44 39 -71 63 l-47 45 62 63 c34 35 66
63 70 63 4 0 8 -57 8 -127z m-98 -120 c43 -43 78 -80 78 -84 0 -4 -75 -7 -167
-8 -91 0 -164 1 -162 4 53 56 164 165 168 165 3 0 41 -35 83 -77z m98 -207 l0
-54 -47 -5 c-27 -3 -109 -5 -183 -4 l-135 2 -3 44 c-5 74 -13 71 188 71 l180
0 0 -54z m1398 -878 l2 -338 -685 0 -685 0 0 334 0 335 33 4 c17 3 325 4 682
3 l650 -1 3 -337z"/>
<path d="M1051 6569 c-48 -19 -84 -54 -107 -103 l-24 -51 0 -1005 c0 -958 1
-1007 19 -1045 10 -22 34 -54 52 -72 70 -66 24 -63 929 -63 l820 0 -2 238 -3
237 -678 3 -677 2 2 698 3 697 675 2 675 3 3 235 2 235 -832 -1 c-497 0 -843
-4 -857 -10z"/>
<path d="M5348 6560 c-46 -25 -92 -80 -107 -129 -16 -54 -16 -1988 0 -2042 17
-55 65 -108 123 -135 l51 -24 813 0 812 0 0 240 0 240 -675 0 -675 0 0 694 0
693 48 6 c26 3 328 5 672 6 l625 0 3 235 2 236 -827 0 c-799 -1 -829 -2 -865
-20z"/>
<path d="M6255 3869 c-22 -35 40 -99 98 -99 61 0 117 40 117 84 0 22 -53 21
-90 -1 -27 -15 -29 -15 -55 5 -30 24 -60 28 -70 11z"/>
<path d="M1008 3750 c-26 -14 -44 -36 -65 -77 -26 -54 -28 -66 -28 -178 0
-108 2 -125 25 -169 37 -74 66 -91 155 -91 58 0 79 4 102 21 32 23 73 97 73
131 0 21 -5 23 -50 23 -38 0 -50 -4 -50 -15 0 -28 -29 -73 -51 -80 -34 -11
-68 3 -84 35 -22 42 -30 173 -16 240 14 67 34 90 77 90 36 0 57 -22 69 -72 7
-26 11 -28 57 -28 l50 0 -7 43 c-15 95 -64 140 -158 144 -47 3 -71 -1 -99 -17z"/>
<path d="M2965 3756 c-40 -17 -82 -67 -95 -114 -16 -59 -13 -241 6 -295 29
-85 100 -126 200 -114 78 8 116 50 138 150 l7 28 -53 -3 c-50 -3 -53 -5 -58
-32 -7 -42 -52 -73 -87 -60 -47 16 -63 64 -63 184 0 126 17 172 65 181 44 8
74 -15 81 -62 6 -37 8 -39 44 -39 65 0 68 4 57 62 -12 60 -58 112 -107 122
-50 9 -102 7 -135 -8z"/>
<path d="M4614 3756 c-77 -34 -108 -121 -102 -283 5 -123 24 -174 80 -215 45
-32 163 -33 204 -2 43 31 65 67 71 112 l6 42 -52 0 c-47 0 -51 -2 -51 -24 0
-32 -43 -76 -75 -76 -64 0 -92 75 -83 225 8 114 25 145 84 145 37 0 54 -17 63
-63 6 -31 9 -32 59 -35 l53 -3 -7 38 c-18 98 -79 153 -170 153 -27 -1 -63 -7
-80 -14z"/>
<path d="M5815 3755 c-88 -41 -121 -127 -113 -290 9 -159 58 -226 173 -233 83
-5 140 25 175 93 21 41 26 66 28 148 4 109 -7 170 -41 223 -41 64 -149 93
-222 59z m127 -93 c10 -8 22 -31 28 -51 13 -48 13 -192 -1 -228 -38 -102 -131
-95 -160 12 -15 55 -6 202 15 243 27 52 76 62 118 24z"/>
<path d="M8114 3745 c-70 -41 -101 -140 -91 -287 5 -71 11 -98 34 -140 38 -70
77 -90 165 -86 79 4 111 23 148 89 23 41 25 54 25 174 0 120 -2 135 -25 180
-46 91 -167 124 -256 70z m160 -98 c19 -25 21 -42 21 -146 0 -131 -10 -162
-56 -181 -69 -29 -110 21 -117 141 -6 99 4 161 30 194 29 37 92 33 122 -8z"/>
<path d="M1350 3500 l0 -260 140 0 140 0 0 46 0 45 -92 -2 -93 -2 -3 67 -3 66
91 0 90 0 0 40 0 40 -90 0 -91 0 3 66 3 67 93 -2 92 -2 0 45 0 46 -140 0 -140
0 0 -260z"/>
<path d="M1710 3500 l0 -260 111 0 c127 0 169 14 200 64 38 62 12 195 -38 196
-16 1 -16 3 3 18 32 27 44 56 44 107 0 104 -48 135 -209 135 l-111 0 0 -260z
m205 160 c9 -7 15 -29 15 -51 0 -47 -27 -69 -87 -69 l-43 0 0 63 c0 35 3 67 8
71 10 11 89 1 107 -14z m-1 -211 c19 -15 26 -30 26 -54 0 -53 -41 -81 -106
-73 -26 3 -29 7 -32 43 -2 21 -1 54 3 72 5 30 9 33 44 33 24 0 48 -8 65 -21z"/>
<path d="M2120 3500 l0 -260 146 0 145 0 -3 43 -3 42 -92 3 -93 3 0 64 0 65
85 0 85 0 0 40 0 40 -85 0 -85 0 0 65 0 64 93 3 92 3 3 43 3 42 -145 0 -146 0
0 -260z"/>
<path d="M2488 3503 l3 -258 44 -3 45 -3 0 93 0 93 60 1 c66 2 111 22 144 67
17 23 21 43 21 105 0 133 -38 162 -212 162 l-108 0 3 -257z m199 151 c22 -22
25 -32 20 -72 -6 -57 -33 -82 -88 -82 l-39 0 0 90 0 90 40 0 c31 0 47 -7 67
-26z"/>
<path d="M3289 3756 c-2 -2 -3 -119 -1 -260 l3 -256 44 0 45 0 0 215 0 215 65
0 65 0 0 -215 0 -215 50 0 50 0 0 260 0 260 -158 0 c-87 0 -161 -2 -163 -4z"/>
<path d="M3710 3500 l0 -260 139 0 c136 0 139 0 143 23 2 12 2 32 0 45 -3 21
-8 22 -93 22 l-89 0 0 65 0 65 85 0 85 0 0 40 0 40 -85 0 -85 0 0 65 c0 74 -9
68 108 65 l72 -2 0 46 0 46 -140 0 -140 0 0 -260z"/>
<path d="M4070 3500 l0 -260 145 0 145 0 0 -45 0 -45 45 0 45 0 0 90 c0 50 -3
89 -7 89 -32 -5 -33 2 -33 216 l0 215 -45 0 -45 0 0 -215 0 -215 -75 0 -75 0
0 215 0 215 -50 0 -50 0 0 -260z"/>
<path d="M4912 3718 l3 -43 58 -3 57 -3 0 -214 0 -215 50 0 50 0 0 218 0 217
57 0 58 0 3 43 3 42 -171 0 -171 0 3 -42z"/>
<path d="M5310 3500 l0 -260 50 0 50 0 0 93 0 92 59 1 c73 2 131 28 151 69 24
47 20 166 -6 202 -37 50 -77 63 -196 63 l-108 0 0 -260z m190 165 c20 -11 31
-25 36 -49 12 -67 -24 -116 -88 -116 l-38 0 0 90 0 90 30 0 c17 0 44 -7 60
-15z"/>
<path d="M6172 3500 l3 -260 58 0 c55 0 58 1 72 33 72 164 103 238 115 275 7
23 16 42 19 42 3 0 5 -79 3 -175 l-4 -175 51 0 51 0 0 260 0 260 -54 0 -54 0
-65 -142 c-35 -79 -71 -161 -78 -183 -13 -37 -14 -27 -17 143 l-2 182 -51 0
-51 0 4 -260z"/>
<path d="M6640 3500 l0 -260 50 0 50 0 0 94 c0 93 0 93 24 89 13 -3 49 0 79 7
95 19 137 88 124 200 -12 104 -55 130 -216 130 l-111 0 0 -260z m205 155 c29
-28 33 -71 10 -114 -16 -33 -33 -41 -81 -41 l-34 0 0 90 0 90 40 0 c30 0 47
-7 65 -25z"/>
<path d="M7040 3500 l0 -260 145 0 145 0 0 45 0 45 -95 0 -95 0 0 65 0 65 85
0 85 0 0 40 0 40 -85 0 -85 0 0 65 0 65 95 0 95 0 0 45 0 45 -145 0 -145 0 0
-260z"/>
<path d="M7420 3500 l0 -260 45 0 45 0 0 182 c0 100 3 178 7 174 5 -4 31 -85
59 -179 l50 -172 44 0 43 0 29 100 c16 55 40 142 53 194 14 52 27 96 30 99 3
3 5 -85 5 -196 l0 -202 50 0 50 0 0 260 0 260 -79 0 -79 0 -48 -172 c-27 -95
-47 -179 -46 -187 2 -7 -1 -10 -7 -6 -6 3 -11 15 -11 27 0 11 -13 66 -29 122
-16 55 -36 127 -45 159 l-17 57 -74 0 -75 0 0 -260z"/>
<path d="M8491 3500 l1 -260 49 0 49 0 0 110 0 110 85 0 85 0 0 -110 0 -110
50 0 50 0 0 260 0 260 -50 0 -50 0 0 -110 0 -110 -85 0 -85 0 0 110 0 110 -50
0 -50 0 1 -260z"/>
<path d="M8930 3715 l0 -45 60 0 60 0 0 -215 0 -215 50 0 50 0 0 215 0 215 55
0 55 0 0 45 0 45 -165 0 -165 0 0 -45z"/>
</g>
</svg>
