<?xml version="1.0" standalone="no"?>
<!DOCTYPE svg PUBLIC "-//W3C//DTD SVG 20010904//EN"
 "http://www.w3.org/TR/2001/REC-SVG-20010904/DTD/svg10.dtd">
<svg version="1.0" xmlns="http://www.w3.org/2000/svg"
 width="1024.000000pt" height="1024.000000pt" viewBox="0 0 1024.000000 1024.000000"
 preserveAspectRatio="xMidYMid meet">

<g transform="translate(0.000000,1024.000000) scale(0.100000,-0.100000)"
fill="#000000" stroke="none">
<path d="M7555 9744 c-11 -3 -69 -14 -130 -25 -132 -24 -440 -84 -945 -184
-206 -41 -472 -92 -590 -115 -118 -23 -294 -56 -390 -75 -96 -19 -380 -73
-630 -120 -250 -48 -711 -136 -1024 -196 l-568 -109 -612 0 -612 0 -105 -69
c-57 -37 -222 -146 -367 -241 l-263 -173 3 -41 3 -41 687 -3 687 -2 3 -68 3
-67 58 -3 57 -3 0 -44 0 -44 102 -3 101 -3 -1 -150 c0 -129 -3 -151 -17 -160
-10 -5 -40 -26 -69 -45 l-51 -36 -3 -123 c-3 -141 -1 -146 81 -187 26 -14 50
-30 52 -37 2 -7 6 -25 10 -40 3 -16 23 -47 44 -70 49 -54 64 -83 55 -110 -24
-79 -121 -75 -142 6 -10 39 -42 47 -71 18 -44 -44 -11 -128 62 -161 164 -75
323 93 228 241 -15 24 -40 55 -55 68 -14 14 -26 31 -26 38 0 8 -7 21 -15 29
-19 20 -19 34 0 34 8 0 15 -9 15 -20 0 -11 4 -20 9 -20 4 0 20 9 34 20 14 11
29 20 34 20 4 1 18 9 31 19 21 18 22 27 22 150 l0 132 -65 41 -65 42 0 153 0
153 109 0 c119 0 122 1 113 58 l-5 32 62 0 61 0 0 70 0 70 1873 -2 1872 -3 -2
-52 -2 -52 50 -3 c27 -2 49 -6 49 -10 0 -5 0 -323 0 -708 0 -385 -3 -700 -7
-700 -5 0 -21 11 -37 25 l-29 25 -596 0 -596 0 -196 -196 -196 -196 -199 196
-199 196 -595 0 -595 0 -238 -238 -237 -237 0 -1190 c0 -655 4 -1194 8 -1200
4 -5 118 -119 253 -252 l245 -243 625 0 624 0 170 170 c93 94 174 170 179 170
6 0 86 -77 178 -170 l167 -170 1173 2 1173 3 3 76 3 77 -100 58 -100 59 -1
413 0 412 412 0 413 0 222 222 223 223 0 660 0 660 -248 248 -247 247 -498 0
-497 0 0 730 0 730 138 1 c75 0 153 1 172 1 19 0 106 0 193 -1 l157 -1 0 -95
0 -95 350 0 350 0 0 95 0 94 88 3 87 3 0 195 0 195 -228 3 -228 2 -92 73 c-51
40 -204 159 -342 265 -137 105 -367 282 -510 393 -412 319 -365 289 -449 288
-39 -1 -80 -3 -91 -5z m-145 -141 c-19 -8 -95 -56 -170 -106 -406 -272 -751
-505 -797 -539 l-51 -37 -1305 -3 c-718 -2 -1303 0 -1300 5 2 4 17 7 33 7 17
0 96 13 177 29 82 17 211 42 288 56 77 14 246 46 375 71 129 25 343 65 475 90
732 139 1060 203 1715 334 294 59 549 107 565 108 l30 0 -35 -15z m985 -501
c94 -73 243 -187 332 -255 l163 -122 -125 -3 -125 -3 0 -69 0 -70 -349 0 -348
0 -12 78 c-18 109 -86 537 -116 722 -14 86 -25 163 -25 173 0 16 84 -47 605
-451z m-924 271 c-11 -81 -34 -242 -50 -358 -17 -115 -38 -261 -47 -323 -9
-62 -20 -114 -24 -117 -4 -3 -66 74 -136 170 l-129 174 -269 1 -269 0 194 128
c107 70 271 179 364 242 282 190 380 251 383 241 2 -5 -6 -76 -17 -158z m228
51 c7 -30 11 -58 8 -60 -2 -3 -19 14 -36 37 -29 40 -30 44 -14 61 9 10 19 18
23 18 4 0 12 -25 19 -56z m-39 -150 c36 -40 66 -80 68 -87 3 -15 -193 -225
-201 -217 -3 3 1 37 8 75 7 39 21 123 30 188 10 64 20 117 24 116 3 0 35 -34
71 -75z m119 -389 c12 -88 25 -182 30 -208 4 -26 5 -46 2 -45 -8 3 -189 150
-235 190 l-31 27 105 99 c58 55 106 99 107 98 0 0 11 -73 22 -161z m-5144
-218 c-77 -79 -143 -145 -147 -146 -9 -1 -242 256 -246 272 -2 10 56 14 265
16 l268 2 -140 -144z m875 135 c0 -6 -233 -281 -242 -285 -2 -1 -63 64 -136
146 l-133 147 255 0 c141 0 256 -3 256 -8z m820 4 c0 -2 -19 -23 -42 -47 -152
-157 -241 -249 -242 -249 -1 0 -66 68 -145 150 l-143 150 286 0 c157 0 286 -2
286 -4z m900 -5 c0 -10 -294 -294 -310 -299 -6 -2 -81 66 -168 152 l-157 156
318 0 c187 0 317 -4 317 -9z m890 2 c0 -12 -284 -293 -295 -292 -5 0 -80 67
-165 149 l-155 150 308 0 c169 0 307 -3 307 -7z m768 -11 c-7 -10 -65 -75
-128 -145 l-114 -127 -81 79 c-44 44 -107 105 -139 136 -47 44 -56 59 -45 66
8 5 128 9 267 9 242 0 253 -1 240 -18z m-2156 -283 c-9 -4 -136 -7 -282 -8
l-264 -1 44 47 c25 27 87 92 139 145 l94 97 143 -137 c113 -107 140 -138 126
-143z m788 144 c77 -75 140 -139 140 -142 0 -5 -548 -7 -572 -2 -4 0 56 60
132 132 77 72 142 135 145 140 4 5 8 9 11 9 3 0 68 -62 144 -137z m1628 3 c56
-74 102 -139 102 -144 0 -4 -106 -8 -235 -8 -129 0 -235 1 -235 4 0 13 247
282 259 282 4 0 53 -61 109 -134z m-4142 -7 c66 -72 120 -134 122 -138 2 -6
-468 -8 -503 -3 -7 2 253 272 261 272 1 0 55 -59 120 -131z m767 -3 c69 -73
124 -136 121 -139 -10 -10 -496 -8 -492 1 4 13 232 270 239 271 3 1 62 -59
132 -133z m-1620 87 c18 -21 69 -79 114 -129 75 -83 80 -92 60 -97 -30 -7
-337 -8 -337 -1 0 6 58 142 93 217 12 26 25 47 30 47 4 0 22 -17 40 -37z
m4337 -224 c-22 -9 -510 -9 -510 0 0 5 59 65 130 135 l131 128 132 -129 c100
-96 129 -130 117 -134z m-4536 164 c-20 -43 -43 -97 -52 -120 -9 -23 -24 -44
-33 -46 -26 -7 -259 -9 -259 -2 0 7 360 245 371 245 5 0 -8 -35 -27 -77z
m5746 -88 c0 -3 -52 -5 -116 -5 l-116 0 7 43 c4 23 11 61 17 84 l10 41 99 -79
c54 -44 99 -82 99 -84z m60 -331 c0 -5 -48 -67 -91 -118 -7 -8 -34 11 -132 96
l-32 27 128 1 c70 0 127 -3 127 -6z m-243 -140 l83 -76 -37 -42 c-21 -22 -60
-69 -87 -103 -27 -35 -51 -63 -52 -63 -2 0 -4 81 -4 180 0 99 3 180 6 180 4 0
44 -34 91 -76z m323 -35 l0 -100 -27 20 c-16 11 -38 28 -50 38 l-22 18 47 63
c25 34 47 62 49 62 2 0 3 -45 3 -101z m-105 -154 l50 -45 -30 -22 c-16 -13
-92 -76 -170 -140 -77 -65 -145 -118 -152 -118 -8 0 -13 13 -13 31 0 24 26 63
123 184 67 85 127 154 132 154 6 1 33 -19 60 -44z m105 -432 l-1 -308 -159
164 c-88 90 -160 169 -160 175 0 13 302 276 316 276 2 0 4 -138 4 -307z m-235
-214 c91 -89 164 -165 163 -169 -2 -4 -42 -41 -89 -81 -186 -159 -186 -159
-223 -159 l-36 0 0 285 c0 169 4 285 9 285 5 0 84 -73 176 -161z m235 -334 l0
-75 -90 0 c-49 0 -90 3 -89 8 0 5 167 140 177 142 1 0 2 -34 2 -75z m-3646
-261 c3 -9 6 -686 6 -1505 l0 -1490 -30 3 c-23 2 -71 45 -230 202 l-200 200 0
1101 0 1101 203 202 c200 199 236 226 251 186z m1114 -130 l151 -145 -121
-162 c-171 -229 -195 -257 -225 -257 -18 0 -62 38 -172 145 l-148 145 -261 0
-262 0 0 210 0 210 444 0 443 0 151 -146z m872 -1359 l0 -1505 -42 0 c-42 0
-46 3 -240 197 l-198 198 0 1099 0 1099 213 208 c170 167 217 208 240 209 l27
0 0 -1505z m991 1444 l69 -61 0 -283 0 -282 -31 -7 c-41 -8 -128 -8 -168 0
-23 5 -71 45 -171 140 l-139 134 -241 0 -240 0 0 210 0 210 426 0 426 0 69
-61z m429 -1444 l0 -1505 -47 0 -48 0 0 1464 0 1465 -32 33 c-18 19 -33 37
-33 41 0 4 36 7 80 7 l80 0 0 -1505z m380 -6 c0 -1374 -1 -1511 -16 -1505 -9
3 -78 6 -155 6 l-139 0 1 1480 c1 814 4 1491 7 1505 l4 25 149 0 149 0 0
-1511z m911 1289 l229 -223 0 -550 0 -550 -132 -131 c-73 -71 -163 -158 -200
-192 l-66 -62 -336 0 -336 0 2 188 3 187 292 5 c331 6 327 5 371 90 22 44 22
48 22 485 0 491 1 484 -70 533 -32 22 -39 22 -326 22 l-294 0 0 210 0 210 306
0 306 0 229 -222z m173 60 c92 -89 166 -168 166 -175 0 -8 -12 -13 -28 -13
-22 0 -62 34 -207 175 l-180 174 42 1 c41 0 46 -4 207 -162z m-3558 -526 c-9
-9 -237 -11 -234 -2 2 5 55 75 118 157 l115 148 3 -149 c1 -82 0 -151 -2 -154z
m3772 -284 l-3 -553 -32 -3 -33 -3 0 555 0 556 35 0 35 0 -2 -552z m-728 -18
c0 -209 0 -383 0 -387 0 -5 -83 -9 -185 -11 l-185 -2 0 390 0 390 185 0 185 0
0 -380z m-3648 243 l118 -118 258 -5 257 -5 3 -624 c2 -497 0 -626 -10 -633
-7 -4 -122 -8 -254 -8 l-242 0 -129 -135 -129 -135 -127 0 -127 0 0 890 0 890
132 0 133 0 117 -117z m1944 -3 l124 -120 185 0 185 0 -2 -632 -3 -633 -187
-3 -186 -2 -130 -136 -129 -135 -109 3 -109 3 -3 888 -2 887 121 0 122 0 123
-120z m-531 69 c7 -7 9 -305 7 -866 l-4 -857 -30 -28 c-17 -15 -32 -28 -34
-28 -2 0 -4 405 -4 901 l0 901 28 -7 c15 -3 31 -11 37 -16z m-1995 -15 l40
-27 0 -843 0 -844 -22 0 c-13 0 -33 -3 -45 -6 l-23 -6 0 876 c0 482 2 876 5
876 3 0 23 -12 45 -26z m4940 -911 c0 -4 -71 -79 -157 -165 -139 -139 -162
-158 -190 -158 -18 0 -33 4 -33 8 0 7 299 298 321 312 13 9 59 10 59 3z
m-3790 -753 l-55 -49 -192 -1 c-106 0 -193 4 -193 9 0 5 20 27 45 50 l45 41
202 0 203 0 -55 -50z m1780 0 l0 -50 -150 0 -150 0 47 48 48 49 103 1 102 2 0
-50z m-1750 -417 c-19 -22 -38 -42 -42 -42 -5 -1 -8 74 -8 166 l0 167 38 39
37 38 5 -163 5 -163 -35 -42z m-128 102 c1 -102 2 -191 2 -198 1 -7 -30 -42
-68 -78 l-69 -64 -306 1 c-168 1 -386 2 -483 3 l-178 1 0 205 0 205 316 0 316
0 56 55 57 55 178 0 177 0 2 -185z m1878 -28 l0 -213 -50 -49 -49 -49 -383 1
c-211 1 -413 2 -450 2 l-68 1 0 205 0 205 271 0 271 0 61 55 60 55 169 0 168
0 0 -213z"/>
<path d="M3936 6264 c-25 -25 -24 -72 2 -91 26 -20 59 -15 81 13 16 21 18 30
10 52 -6 15 -16 30 -22 34 -20 13 -55 9 -71 -8z"/>
<path d="M3937 5932 c-20 -22 -22 -61 -4 -86 20 -27 77 -18 96 15 32 58 -47
120 -92 71z"/>
<path d="M3948 5566 c-33 -16 -36 -67 -7 -95 28 -26 40 -26 73 0 29 23 33 45
11 76 -19 26 -47 34 -77 19z"/>
<path d="M3942 5164 c-45 -31 -17 -104 41 -104 26 0 57 31 57 58 0 17 -45 62
-62 62 -8 0 -24 -7 -36 -16z"/>
<path d="M3937 4792 c-22 -24 -21 -65 1 -85 58 -53 137 28 82 83 -25 25 -62
26 -83 2z"/>
<path d="M3940 4420 c-32 -32 -25 -66 17 -89 39 -20 83 9 83 55 0 21 -37 54
-60 54 -11 0 -29 -9 -40 -20z"/>
<path d="M3955 4050 c-22 -24 -14 -65 16 -81 18 -9 26 -7 48 9 33 24 38 48 15
73 -22 24 -56 24 -79 -1z"/>
<path d="M4324 6535 c-34 -52 15 -112 71 -87 54 25 35 112 -25 112 -20 0 -35
-8 -46 -25z"/>
<path d="M4602 6547 c-6 -6 -13 -24 -17 -39 -8 -31 22 -68 55 -68 33 0 63 37
55 68 -11 46 -68 70 -93 39z"/>
<path d="M4900 6540 c-11 -11 -20 -29 -20 -40 0 -23 33 -60 54 -60 46 0 75 44
55 83 -23 42 -57 49 -89 17z"/>
<path d="M5166 6534 c-20 -20 -20 -43 0 -72 18 -26 56 -29 78 -6 19 18 21 65
4 82 -17 17 -64 15 -82 -4z"/>
<path d="M5110 6240 c-11 -11 -20 -26 -20 -34 0 -24 41 -66 65 -66 24 0 65 42
65 66 0 23 -38 54 -65 54 -14 0 -34 -9 -45 -20z"/>
<path d="M5914 6272 c-23 -15 -35 -51 -24 -72 32 -60 110 -39 110 29 0 36 -55
64 -86 43z"/>
<path d="M5900 5930 c-25 -25 -25 -51 -2 -80 22 -28 70 -30 89 -4 46 63 -32
139 -87 84z"/>
<path d="M5897 5552 c-10 -10 -17 -28 -17 -40 0 -25 36 -62 62 -62 25 0 58 36
58 63 0 50 -70 76 -103 39z"/>
<path d="M5900 5160 c-24 -24 -25 -48 -4 -78 19 -27 64 -29 87 -4 24 26 21 68
-5 86 -30 21 -54 20 -78 -4z"/>
<path d="M5900 4790 c-53 -53 13 -126 81 -90 13 7 19 21 19 44 0 59 -59 87
-100 46z"/>
<path d="M5915 4428 c-25 -14 -35 -28 -35 -50 0 -24 35 -58 60 -58 28 0 60 35
60 64 0 14 -10 32 -22 40 -26 19 -36 19 -63 4z"/>
<path d="M5921 4044 c-26 -34 -24 -51 10 -76 21 -16 31 -18 48 -9 37 20 46 50
24 80 -28 36 -56 38 -82 5z"/>
<path d="M6343 6559 c-43 -16 -44 -84 -2 -108 24 -13 29 -13 53 2 19 13 26 26
26 51 0 46 -34 71 -77 55z"/>
<path d="M6636 6538 c-30 -42 -9 -88 39 -88 13 0 31 7 39 16 9 8 16 26 16 39
0 52 -65 74 -94 33z"/>
<path d="M6967 6542 c-24 -27 -21 -58 9 -81 33 -26 39 -26 64 -1 25 25 26 62
2 83 -24 22 -55 21 -75 -1z"/>
<path d="M7040 6248 c-37 -40 -17 -98 36 -98 29 0 64 33 64 60 0 26 -34 60
-60 60 -10 0 -28 -10 -40 -22z"/>
<path d="M7790 6538 c-25 -28 -26 -52 0 -78 55 -55 129 14 84 78 -19 28 -57
28 -84 0z"/>
<path d="M7786 6238 c-9 -12 -16 -29 -16 -38 0 -9 7 -26 16 -38 23 -33 73 -27
94 11 13 24 13 30 0 55 -21 37 -71 43 -94 10z"/>
<path d="M7787 5612 c-29 -32 -21 -69 20 -91 50 -26 95 25 70 79 -16 32 -65
39 -90 12z"/>
<path d="M7803 5150 c-53 -21 -31 -110 27 -110 19 0 34 8 44 22 23 32 20 54
-10 77 -30 23 -30 23 -61 11z"/>
<path d="M7792 4754 c-43 -30 -17 -104 36 -104 25 0 62 33 62 55 0 19 -44 65
-62 65 -8 0 -24 -7 -36 -16z"/>
<path d="M7786 4228 c-22 -32 -20 -64 6 -82 31 -22 45 -20 73 9 30 29 31 49 5
75 -27 27 -65 26 -84 -2z"/>
<path d="M7787 3902 c-35 -39 -13 -92 37 -92 35 0 49 11 60 47 15 48 -62 83
-97 45z"/>
<path d="M8176 6549 c-46 -36 -23 -99 37 -99 56 0 70 82 18 109 -26 14 -24 14
-55 -10z"/>
<path d="M8492 6547 c-51 -54 3 -122 69 -87 28 15 26 74 -3 94 -30 21 -41 20
-66 -7z"/>
<path d="M8886 6254 c-22 -21 -20 -67 2 -87 23 -21 41 -21 70 -1 25 17 31 71
10 92 -17 17 -64 15 -82 -4z"/>
<path d="M8877 5902 c-22 -24 -21 -65 1 -85 42 -38 111 -4 98 47 -13 53 -67
74 -99 38z"/>
<path d="M8882 5504 c-32 -22 -30 -69 4 -91 24 -15 29 -15 53 -2 36 20 41 71
9 93 -28 20 -38 20 -66 0z"/>
<path d="M8892 5187 c-26 -12 -40 -53 -25 -76 6 -9 22 -20 36 -25 59 -21 95
69 40 97 -21 11 -34 12 -51 4z"/>
<path d="M8520 5022 c-27 -9 -50 -35 -50 -58 0 -24 33 -54 61 -54 23 0 49 33
49 62 0 28 -35 58 -60 50z"/>
<path d="M8165 5000 c-35 -39 7 -99 61 -86 14 4 30 17 36 31 25 56 -54 102
-97 55z"/>
<path d="M5120 4141 c-24 -46 -6 -91 37 -91 26 0 63 32 63 55 0 45 -80 73
-100 36z"/>
<path d="M4362 3914 c-28 -19 -29 -57 -2 -84 24 -24 38 -25 67 -5 32 23 35 54
8 81 -28 28 -42 30 -73 8z"/>
<path d="M4646 3909 c-14 -11 -26 -26 -26 -33 0 -22 40 -66 61 -66 25 0 59 35
59 60 0 23 -33 60 -54 60 -7 0 -25 -9 -40 -21z"/>
<path d="M4982 3908 c-31 -39 -6 -98 42 -98 47 0 73 62 40 94 -19 19 -67 21
-82 4z"/>
<path d="M7002 4140 c-26 -25 -27 -38 -6 -68 18 -27 55 -29 77 -4 22 24 21 55
-1 75 -25 22 -44 21 -70 -3z"/>
<path d="M6330 3910 c-26 -26 -25 -55 1 -81 26 -26 57 -21 82 12 23 32 16 61
-19 77 -34 16 -41 15 -64 -8z"/>
<path d="M6622 3908 c-29 -29 -1 -98 41 -98 17 0 57 45 57 66 0 36 -71 59 -98
32z"/>
<path d="M6935 3900 c-23 -26 -13 -67 21 -82 31 -15 55 -2 68 35 19 53 -50 90
-89 47z"/>
<path d="M1653 6618 l-253 -252 0 -1166 0 -1165 263 -263 262 -262 635 0 635
0 177 178 177 177 2 343 c1 188 -1 345 -4 348 -3 3 -149 5 -324 5 l-318 -2
-135 -134 -135 -135 -123 0 -122 0 0 890 0 890 131 0 131 0 126 -120 127 -120
323 0 322 0 1 123 c1 67 2 204 3 305 l1 183 -216 214 -216 215 -608 0 -609 0
-253 -252z m387 -1423 l0 -1505 -33 0 c-29 0 -55 22 -240 208 l-207 207 0
1086 0 1086 215 212 c165 163 220 211 240 211 l25 0 0 -1505z m1140 1360 c80
-80 147 -148 149 -150 6 -7 -298 -417 -320 -430 -9 -6 -45 25 -241 212 l-97
93 -275 0 -276 0 0 210 0 210 458 0 458 0 144 -145z m157 -539 c-3 -6 -22 -11
-43 -10 -22 1 -63 2 -92 3 l-52 1 92 118 93 118 3 -110 c1 -60 1 -115 -1 -120z
m-1157 69 l50 -25 0 -873 c0 -479 -4 -876 -8 -882 -4 -5 -29 -30 -55 -55 l-47
-44 0 952 c0 524 2 952 5 952 3 0 28 -11 55 -25z m1065 -1745 l-49 -50 -140 0
-140 0 49 50 49 50 140 0 140 0 -49 -50z m95 -236 l0 -207 -37 -41 c-20 -22
-40 -42 -45 -44 -4 -2 -8 91 -8 207 l0 211 36 40 c20 22 40 40 45 40 5 0 9
-93 9 -206z m-170 -133 c0 -217 -2 -241 -18 -261 l-19 -23 -369 0 c-203 1
-431 1 -506 2 l-138 1 0 205 0 205 316 0 316 0 61 55 62 55 148 0 147 0 0
-239z"/>
<path d="M1777 6262 c-22 -25 -21 -48 3 -72 27 -27 65 -26 84 2 21 30 20 44
-4 68 -25 25 -62 26 -83 2z"/>
<path d="M1777 5938 c-9 -7 -19 -25 -22 -40 -9 -37 34 -83 68 -72 36 11 47 25
47 59 0 53 -52 83 -93 53z"/>
<path d="M1770 5555 c-28 -34 1 -105 44 -105 46 0 74 71 40 104 -20 20 -68 21
-84 1z"/>
<path d="M1790 5173 c-55 -21 -29 -113 32 -113 47 0 66 76 26 104 -24 17 -33
18 -58 9z"/>
<path d="M1778 4793 c-26 -31 -29 -42 -17 -65 16 -30 28 -38 61 -38 29 0 58
31 58 62 0 25 -36 58 -63 58 -13 0 -31 -8 -39 -17z"/>
<path d="M1777 4428 c-28 -22 -32 -63 -8 -87 25 -25 49 -27 79 -5 14 10 22 26
22 44 0 47 -56 76 -93 48z"/>
<path d="M1787 4052 c-34 -37 -11 -92 38 -92 30 0 55 25 55 55 0 50 -60 73
-93 37z"/>
<path d="M2496 6549 c-30 -24 -34 -59 -8 -82 57 -52 124 25 72 81 -26 27 -31
27 -64 1z"/>
<path d="M2813 6560 c-32 -13 -48 -47 -35 -76 32 -68 115 -34 100 42 -5 26
-39 44 -65 34z"/>
<path d="M2164 6536 c-21 -34 -14 -67 18 -85 25 -14 29 -14 55 5 35 26 40 57
14 83 -29 29 -67 27 -87 -3z"/>
<path d="M3062 6544 c-31 -22 -30 -69 4 -90 24 -16 27 -16 52 3 34 25 39 56
13 82 -25 25 -39 26 -69 5z"/>
<path d="M3024 6244 c-20 -29 -11 -69 19 -88 27 -17 71 12 75 51 6 60 -62 87
-94 37z"/>
<path d="M2150 5896 c-6 -8 -10 -25 -8 -38 2 -17 10 -23 28 -23 18 0 26 6 28
23 3 22 -13 52 -28 52 -4 0 -13 -7 -20 -14z"/>
<path d="M2152 5568 c-28 -28 -3 -85 32 -72 22 8 22 70 0 78 -20 8 -18 8 -32
-6z"/>
<path d="M2142 5158 c-15 -15 -16 -50 0 -66 33 -33 76 5 55 49 -14 28 -37 35
-55 17z"/>
<path d="M2134 4765 c-4 -8 -3 -27 0 -41 5 -20 12 -25 34 -22 47 5 39 78 -10
78 -10 0 -21 -7 -24 -15z"/>
<path d="M2143 4434 c-18 -8 -16 -59 3 -75 24 -20 49 1 49 42 0 27 -4 34 -20
36 -11 1 -26 -1 -32 -3z"/>
<path d="M3000 4140 c-24 -24 -25 -38 -4 -68 18 -27 55 -29 77 -4 23 26 21 58
-5 76 -30 21 -44 20 -68 -4z"/>
<path d="M2183 3920 c-12 -5 -25 -21 -29 -36 -6 -22 -2 -32 20 -51 33 -28 50
-29 76 -3 47 47 -4 115 -67 90z"/>
<path d="M2530 3917 c-31 -16 -39 -61 -14 -88 21 -23 42 -24 72 -3 28 19 29
57 2 84 -23 23 -27 24 -60 7z"/>
<path d="M2847 3902 c-33 -36 -8 -92 41 -92 23 0 52 34 52 62 0 43 -63 64 -93
30z"/>
<path d="M8994 3356 c-3 -8 -4 -29 -2 -48 l3 -33 70 0 70 0 3 48 3 47 -71 0
c-51 0 -72 -4 -76 -14z"/>
<path d="M1166 3225 c-57 -20 -87 -45 -114 -96 -23 -44 -23 -44 -20 -385 l3
-341 28 -42 c20 -31 44 -50 83 -68 50 -22 65 -24 163 -21 103 3 112 5 152 33
71 50 83 82 88 218 l3 118 -88 -3 -89 -3 -5 -83 c-4 -68 -9 -86 -24 -98 -28
-20 -73 -17 -96 6 -19 19 -20 33 -20 289 0 246 2 271 18 292 13 15 30 22 52
22 49 0 70 -31 70 -104 l0 -59 90 0 90 0 0 83 c0 45 -5 99 -11 120 -15 54 -62
103 -116 121 -58 20 -203 20 -257 1z"/>
<path d="M4156 3228 c-23 -6 -57 -28 -82 -53 -62 -62 -66 -93 -62 -450 3 -299
3 -300 28 -345 14 -24 44 -58 68 -75 41 -28 51 -30 148 -33 117 -4 181 11 227
53 50 47 61 81 65 203 l4 113 -98 -3 -99 -3 -1 -50 c-1 -92 -4 -105 -24 -125
-27 -27 -71 -26 -99 4 -22 23 -22 26 -19 294 3 304 4 306 73 306 51 0 66 -21
72 -98 l6 -66 95 0 94 0 -4 98 c-5 119 -28 170 -98 210 -40 24 -57 27 -150 29
-58 1 -123 -3 -144 -9z"/>
<path d="M6646 3225 c-58 -21 -88 -46 -116 -101 -25 -48 -25 -52 -28 -337 -4
-312 2 -367 44 -430 41 -62 106 -87 230 -87 90 0 106 3 155 28 81 41 99 83 99
229 l0 113 -89 0 -89 0 -3 -79 c-3 -60 -9 -84 -23 -100 -25 -28 -77 -28 -102
0 -17 19 -19 42 -22 264 -4 268 2 315 43 333 35 16 49 15 74 -5 17 -14 22 -32
26 -83 l4 -65 90 -3 91 -3 0 79 c0 146 -42 221 -139 251 -52 15 -197 13 -245
-4z"/>
<path d="M8416 3225 c-58 -21 -88 -46 -116 -101 -25 -48 -25 -52 -28 -335 -4
-321 3 -384 46 -438 47 -58 93 -76 209 -79 92 -3 108 -1 156 21 61 28 100 72
116 132 15 54 15 601 0 660 -15 61 -68 119 -126 139 -58 20 -203 21 -257 1z
m159 -167 c41 -18 47 -65 43 -333 -3 -222 -5 -245 -22 -264 -22 -25 -73 -28
-102 -7 -18 14 -19 31 -22 290 l-3 276 25 25 c28 28 43 30 81 13z"/>
<path d="M1650 2755 l0 -475 230 0 230 0 0 90 0 90 -130 0 -130 0 0 115 0 115
105 0 106 0 -3 81 -3 82 -102 -2 -103 -2 0 100 0 101 125 0 125 0 0 74 c0 41
3 81 6 90 5 14 -18 16 -225 16 l-231 0 0 -475z"/>
<path d="M2200 2754 l0 -476 203 4 c194 3 204 4 246 28 79 45 100 94 101 235
0 107 -14 152 -61 197 l-39 37 29 20 c40 29 54 87 49 208 -3 88 -6 104 -30
140 -48 73 -84 83 -306 83 l-192 0 0 -476z m320 286 c26 -26 28 -133 4 -168
-20 -29 -109 -33 -118 -4 -7 21 -7 151 0 175 8 25 87 24 114 -3z m4 -363 c26
-19 34 -129 13 -180 -15 -34 -19 -37 -56 -37 -22 0 -46 -2 -54 -5 -11 -5 -15
11 -20 77 -4 46 -4 100 -1 121 7 37 7 37 53 37 26 0 55 -6 65 -13z"/>
<path d="M2840 2755 l0 -475 235 0 235 0 0 90 0 90 -135 0 -135 0 0 115 0 115
105 0 105 0 0 80 0 79 -102 3 -103 3 -3 98 -3 97 131 0 130 0 0 90 0 90 -230
0 -230 0 0 -475z"/>
<path d="M3389 3228 c0 -2 -2 -216 -5 -475 l-4 -473 105 0 105 0 0 139 0 139
98 4 c122 4 183 30 216 93 19 36 21 60 24 230 3 181 2 192 -20 234 -13 25 -40
59 -61 75 l-39 31 -209 3 c-115 2 -209 2 -210 0z m324 -199 c16 -20 18 -37 15
-141 -4 -137 -8 -145 -86 -155 l-52 -6 0 168 0 168 52 -5 c38 -4 57 -11 71
-29z"/>
<path d="M4656 3203 c-3 -16 -5 -229 -5 -475 l0 -448 100 0 99 0 0 385 0 385
75 0 75 0 0 -385 0 -385 100 0 100 0 0 475 0 475 -269 0 -269 0 -6 -27z"/>
<path d="M5310 2755 l0 -475 225 0 225 0 0 90 0 90 -130 0 -130 0 0 115 0 115
105 0 105 0 0 80 0 80 -105 0 -105 0 0 100 0 100 130 0 130 0 0 90 0 90 -225
0 -225 0 0 -475z"/>
<path d="M5850 2755 l0 -475 220 0 220 0 0 -65 0 -65 90 0 90 0 0 155 0 155
-40 0 -40 0 0 385 0 385 -94 0 -94 0 -4 -62 c-2 -35 -3 -208 -2 -385 l1 -323
-73 0 -74 0 0 385 0 385 -100 0 -100 0 0 -475z"/>
<path d="M7080 3140 l0 -90 80 0 80 0 0 -385 0 -385 100 0 100 0 0 385 0 385
80 0 80 0 0 90 0 90 -260 0 -260 0 0 -90z"/>
<path d="M7670 2755 l0 -475 100 0 100 0 0 140 0 140 88 0 c123 1 192 36 221
113 7 16 11 108 11 218 0 239 -13 278 -105 320 -34 16 -67 19 -227 19 l-188 0
0 -475z m274 295 c21 -4 43 -15 47 -22 5 -7 9 -65 9 -129 0 -140 -9 -158 -83
-166 l-47 -6 0 167 c0 185 -5 175 74 156z"/>
<path d="M8900 2755 l0 -476 87 3 87 3 87 259 c49 142 90 261 93 264 4 3 6
-115 6 -261 l0 -267 95 0 95 0 0 475 0 475 -97 0 -98 0 -49 -158 c-27 -86 -64
-203 -81 -259 -17 -57 -33 -105 -36 -107 -2 -2 -3 115 -1 260 l3 264 -96 0
-95 0 0 -475z"/>
<path d="M5545 2030 c-100 -20 -149 -55 -184 -129 l-26 -56 -3 -338 c-4 -394
0 -420 72 -491 58 -58 114 -76 241 -76 164 0 246 37 298 134 22 40 22 49 22
411 l0 370 -29 52 c-16 29 -46 64 -68 79 -66 46 -214 66 -323 44z m166 -226
l24 -26 3 -281 c2 -253 1 -286 -15 -317 -34 -66 -112 -66 -145 0 -16 31 -18
68 -18 302 0 269 5 311 37 336 29 22 87 15 114 -14z"/>
<path d="M2820 1491 l0 -542 113 3 112 3 0 156 0 156 118 6 c106 5 122 8 170
35 39 22 58 41 77 78 24 47 25 54 25 254 0 193 -2 208 -23 257 -52 114 -86
126 -369 131 l-223 4 0 -541z m371 310 c20 -16 23 -29 27 -109 9 -182 -9 -220
-106 -229 l-62 -6 -1 99 c-2 101 -2 188 0 237 1 26 3 27 60 27 42 0 65 -5 82
-19z"/>
<path d="M3580 1490 l0 -540 266 2 266 3 0 100 0 100 -151 3 -151 3 0 114 0
114 128 3 127 3 -1 68 c-1 37 -2 83 -3 102 l-1 35 -125 0 -125 0 0 110 0 110
150 0 150 0 0 105 0 105 -265 0 -265 0 0 -540z"/>
<path d="M4250 1489 l0 -539 110 0 110 0 0 328 c0 186 4 321 9 312 5 -8 37
-118 71 -245 35 -126 65 -238 68 -247 4 -16 17 -18 97 -18 l92 0 21 73 c11 39
44 160 74 266 l53 195 3 -332 2 -332 110 0 110 0 0 540 0 540 -150 0 -149 0
-10 -37 c-9 -36 -118 -457 -143 -552 l-12 -45 -12 40 c-7 21 -43 154 -80 294
-37 140 -70 265 -75 278 -8 22 -12 22 -154 21 l-145 -1 0 -539z"/>
<path d="M6116 2023 c-3 -4 -6 -246 -6 -540 l0 -534 113 3 112 3 3 218 2 218
93 -3 92 -3 3 -218 2 -218 108 3 107 3 3 538 2 538 -112 -3 -113 -3 -3 -212
-2 -213 -90 0 -90 0 -2 213 -3 212 -107 2 c-58 1 -109 -1 -112 -4z"/>
<path d="M6864 2017 c-2 -7 -3 -55 -2 -107 l3 -95 98 -3 97 -3 0 -430 0 -430
110 3 111 3 -1 428 0 427 100 0 101 0 -3 108 -3 107 -303 3 c-241 2 -304 0
-308 -11z"/>
</g>
</svg>
